<svg xmlns="http://www.w3.org/2000/svg" viewBox="0 0 25.468 25.468" class="design-iconfont">
  <g fill="#fff">
    <path d="M85.333,85.333m2.426,0h6.064a2.144,2.144,0,0,1,2.426,2.426v6.064a2.144,2.144,0,0,1-2.426,2.426H87.759a2.144,2.144,0,0,1-2.426-2.426V87.759A2.144,2.144,0,0,1,87.759,85.333Z" transform="translate(-85.333 -85.333)"/>
    <path d="M85.333,554.667m2.426,0h6.064a2.144,2.144,0,0,1,2.426,2.426v6.064a2.144,2.144,0,0,1-2.426,2.425H87.759a2.144,2.144,0,0,1-2.426-2.425v-6.064A2.144,2.144,0,0,1,87.759,554.667Z" transform="translate(-85.333 -541.326)"/>
    <path d="M554.667,85.333m2.426,0h6.064a2.144,2.144,0,0,1,2.425,2.426v6.064a2.144,2.144,0,0,1-2.425,2.426h-6.064a2.144,2.144,0,0,1-2.426-2.426V87.759A2.144,2.144,0,0,1,557.093,85.333Z" transform="translate(-541.326 -85.333)"/>
    <path d="M512,518.064a6.064,6.064,0,1,1,6.064,6.064A6.068,6.068,0,0,1,512,518.064Zm2.425,0a3.638,3.638,0,1,0,3.638-3.638A3.642,3.642,0,0,0,514.425,518.064Z" transform="translate(-499.872 -499.872)"/>
    <path d="M811.022,812.738l2.426,2.426a1.213,1.213,0,1,0,1.715-1.715l-2.426-2.425a1.213,1.213,0,1,0-1.715,1.715Z" transform="translate(-790.049 -790.05)"/>
  </g>
</svg>
